<?xml version="1.0" encoding="UTF-8"?>
<svg id="_레이어_1" data-name="레이어 1" xmlns="http://www.w3.org/2000/svg" version="1.1" viewBox="0 0 96 120">
  <defs>
    <style>
      .cls-1 {
        fill: #000;
        stroke-width: 0px;
      }
    </style>
  </defs>
  <path class="cls-1" d="M85.6,9.9c-.4-.3-.8-.3-1.3-.2-11.7,3.9-21-.4-33.9-6.3-.6-.3-1.2-.5-1.8-.8-.4-.2-.8-.2-1.2,0-.6.3-1.2.6-1.8.8-12.9,5.9-22.2,10.1-33.9,6.3-.4-.1-.9,0-1.3.2-.4.3-.6.7-.6,1.2v38.5c0,10.7,3.9,21,11,29.1,7,8,16.6,13.2,27,14.7,0,0,.1,0,.2,0s.1,0,.2,0c10.4-1.5,20-6.7,27-14.7,7.1-8.1,11-18.4,11-29.1V11.1c0-.5-.2-.9-.6-1.2ZM83.3,49.6c0,20.4-15.2,38-35.3,41-20.2-3-35.3-20.6-35.3-41V13c2.7.7,5.4,1.1,7.9,1.1,8.6,0,16.7-3.7,26.2-8,.4-.2.8-.4,1.2-.6.4.2.8.4,1.2.6,9.5,4.3,17.5,8,26.2,8s5.2-.3,7.9-1.1v36.6h0ZM48,21c-15.1,0-27.4,12.3-27.4,27.4s12.3,27.4,27.4,27.4,27.4-12.3,27.4-27.4-12.3-27.4-27.4-27.4ZM33.8,28.4c.8.2,1.3.4,1.8.6,2.3.8,2.6.8,6.4,0,2.2-.5,2.6-.1,3.3.4.7.5,1.6,1.3,3.4,1.6.8.1,1.1.2,1.2.3,0,.1-.3,2.8-.4,2.9,0,0,0,0,0,0-.4.1-.9.2-1.4.3-3.2.7-7.4,2.3-8.1,5.9-.1.6-.5.8-1.6,1.2-.8.3-1.8.6-2.2,1.7-.4,1.1.2,2.1.4,2.4.7,1.1.9,1.9,1.1,2.4.2.6.5,1.5,1.5,1.8.6.2,1.3.1,2.7,0h.4c1,0,6.6,1.6,8.3,3.6.2.3.4.5.3.6-.2,2.3-1.1,3.1-2.2,4-1.2,1-2.6,2.2-3,4.9-.3,2.1-.9,3.3-1.2,3.7-.3-.3-1-1.4-1.6-4.7-1-5.4-2.8-6.3-4.8-6.8-.6-.1-.7-.2-.8-.3-.2-.2-.4-.9-.5-3,0-2.7-1.5-4.7-3.8-6-1.8-1.1-5.2-3-7.2-8.4,1.8-3.7,4.5-6.9,7.8-9.3ZM48,72.9c-13.5,0-24.5-11-24.5-24.5s.4-4.8,1-7c2.4,4.4,5.5,6.2,7.2,7.2,1.4.8,2.3,1.9,2.4,3.6,0,4.4,1.2,5.5,3.4,6,1,.2,1.9.4,2.7,4.5.3,1.8,1.3,7.2,4.4,7.2s0,0,0,0c2.4,0,3.6-3.3,4-6.2.2-1.6.9-2.3,2-3.1,1.3-1.1,3-2.5,3.2-6,0-1.1-.4-2.1-1.3-3-2.6-2.6-9-4.4-10.4-4.3h-.5c-.5,0-.9.1-1.3.1-.2-.6-.5-1.5-1.3-2.8,0,0,.1,0,.2,0,1.1-.4,3-1,3.5-3.3.6-3.1,5.1-3.4,7.5-4,1.4-.4,2.1-1.8,2.4-3.1.3-1.3.5-3.3-.5-4.4-.7-.9-1.8-1.1-3-1.3-1.1-.2-1.5-.5-2-.9-1.2-1-2.4-1.7-5.6-1-3,.6-3.2.7-4.5.2,3.3-1.7,7.1-2.6,11.1-2.6s10.4,1.8,14.5,4.7c-1.2.4-2.6,1-3.6,1.9-2,1.9-1.3,5.5-.8,6.6.6,1.4,2.5,1.2,4.9.9.3,0,.8-.1,1-.1.3,0,.3,0,.4.2.3.7,0,2-.3,2.5-.9,0-3.2,0-4.7-.6-.9-.3-2,.1-2.9,1.1-.5.6-1.3,1.7-.8,2.7,0,.2,0,.4-.3,1.1-.4.8-.9,1.8-.5,3.2.4,1.3,1.5,2.4,3.7,3.5,1.4.8,2.6.9,3.5.9.3,0,.7,0,.8.1,0,0,.5.6.4,4,0,1.1-.2,1.8-.6,3.1-.2.7-.5,1.7-.8,2.9-.3,1,.2,2,1.1,2.5.6.3,1.3.5,2.2.5s.4,0,.6,0c-4.5,4.6-10.7,7.4-17.6,7.4ZM68.7,61.5c-1,.8-3.1,1.2-4,1.2.2-.9.4-1.6.6-2.2.4-1.3.7-2.3.7-3.8,0-2.9-.2-4.5-.8-5.5-.8-1.3-2.1-1.4-3.1-1.5-.7,0-1.5-.1-2.4-.6-2-1.1-2.3-1.7-2.4-1.9,0-.2,0-.5.3-1,.4-.7.9-1.7.6-3,.1-.1.2-.3.4-.4,2.1.6,5.2.8,6.3.5,1.6-.4,2.4-3.4,2.2-5.2-.2-1.8-1.4-3-3.2-3.1-.3,0-.7,0-1.4.1-.5,0-1.5.2-2.1.2-.2-.9-.2-2.2.3-2.7.8-.7,2.3-1.2,3.4-1.6.3-.1.6-.2.8-.3,4.6,4.5,7.5,10.7,7.5,17.7,0,4.8-1.4,9.3-3.8,13.1Z"/>
</svg>